<svg xmlns="http://www.w3.org/2000/svg" xml:space="preserve" style="fill-rule:evenodd;clip-rule:evenodd;stroke-linejoin:round;stroke-miterlimit:2" viewBox="0 0 33 33"><path d="M14.641 23.75c-3.788 0-6.891 3.101-6.891 6.889v4.681c0 .928.763 1.691 1.69 1.691.928 0 1.691-.763 1.691-1.691v-4.681c0-1.974 1.536-3.51 3.51-3.51h4.679l.05.001c.927 0 1.69-.763 1.69-1.691 0-.927-.763-1.69-1.69-1.69l-.05.001h-4.679Zm14.041 0-.05-.001c-.927 0-1.69.763-1.69 1.69 0 .928.763 1.691 1.69 1.691l.05-.001h4.679c1.974 0 3.51 1.536 3.51 3.51v4.681c0 .928.763 1.691 1.691 1.691.927 0 1.69-.763 1.69-1.691v-4.681c0-3.788-3.103-6.889-6.891-6.889h-4.679ZM9.414 42.967A1.698 1.698 0 0 0 7.75 44.68v4.681c0 3.788 3.103 6.889 6.891 6.889h4.679l.05.001c.927 0 1.69-.763 1.69-1.69 0-.928-.763-1.691-1.69-1.691l-.05.001h-4.679c-1.974 0-3.51-1.536-3.51-3.51v-4.704c0-.927-.763-1.69-1.69-1.69h-.027Zm29.121 0a1.698 1.698 0 0 0-1.664 1.713v4.681c0 1.974-1.536 3.51-3.51 3.51h-4.679l-.05-.001c-.927 0-1.69.763-1.69 1.691 0 .927.763 1.69 1.69 1.69l.05-.001h4.679c3.788 0 6.891-3.101 6.891-6.889v-4.704c0-.927-.763-1.69-1.69-1.69h-.027ZM28.748 31.867a1.698 1.698 0 0 0-1.664 1.713v12.84l-.001.051c0 .928.763 1.691 1.69 1.691.928 0 1.691-.763 1.691-1.691l-.001-.051V33.557c0-.927-.763-1.69-1.69-1.69h-.025ZM19.201 31.867a1.698 1.698 0 0 0-1.664 1.713v12.84c0 .927.763 1.69 1.691 1.69.927 0 1.69-.763 1.69-1.69V33.557c0-.927-.763-1.69-1.69-1.69h-.027Z" style="fill-rule:nonzero" transform="translate(-7.75 -23.75)"/></svg>