<svg xmlns="http://www.w3.org/2000/svg" xml:space="preserve" style="fill-rule:evenodd;clip-rule:evenodd;stroke-linejoin:round;stroke-miterlimit:2" viewBox="0 0 33 32"><path d="M80.996 59.066H63.773l4.859-18.137h12.211v.004a3.606 3.606 0 0 0 3.641-3.16 3.521 3.521 0 0 0-.895-2.699 3.503 3.503 0 0 0-2.593-1.149H70.508l3.433-12.801a3.602 3.602 0 0 0-2.109-4.324 3.495 3.495 0 0 0-2.84.148 3.512 3.512 0 0 0-1.793 2.207l-3.961 14.77H45.363l3.434-12.801a3.598 3.598 0 0 0-2.114-4.324 3.5 3.5 0 0 0-2.835.164 3.517 3.517 0 0 0-1.786 2.211l-3.953 14.75H19.156a3.598 3.598 0 0 0-3.64 3.16c-.094.981.23 1.961.894 2.696a3.527 3.527 0 0 0 2.594 1.152h17.223l-4.859 18.133H19.157a3.606 3.606 0 0 0-3.641 3.16c-.094.984.23 1.965.895 2.699a3.503 3.503 0 0 0 2.593 1.149h10.488l-3.433 12.801a3.602 3.602 0 0 0 2.109 4.332 3.505 3.505 0 0 0 4.633-2.364l3.961-14.77h17.887l-3.434 12.801a3.598 3.598 0 0 0 2.114 4.332c.925.348 1.957.29 2.835-.164a3.515 3.515 0 0 0 1.786-2.21l3.957-14.77H80.86h-.004a3.599 3.599 0 0 0 3.64-3.161 3.493 3.493 0 0 0-.902-2.691 3.509 3.509 0 0 0-2.598-1.145v.001Zm-42.371 0 4.859-18.137h17.891l-4.859 18.137H38.625Z" style="fill-rule:nonzero" transform="translate(-7.3 -7.802) scale(.47093)"/></svg>